<?xml version="1.0" encoding="UTF-8"?>
<svg id="Layer_2" data-name="Layer 2" xmlns="http://www.w3.org/2000/svg" viewBox="0 0 1440.24 5800">
  <defs>
    <style>
      .cls-1 {
        fill: #fff;
        stroke-width: 0px;
      }
    </style>
  </defs>
  <g id="Layer_10" data-name="Layer 10">
    <path class="cls-1" d="m570.26,1085.47c-10.03,58.81-64.87,99.95-120.81,120.69-55.93,20.74-116.57,27.47-171.27,51.27-54.7,23.81-105.51,72.23-105.68,131.89-.08,31.09,13.24,64.27-.93,91.95-15.96,31.15-57.84,37.89-82.76,62.47-25.65,25.3-29.35,65.82-22.83,101.25,6.53,35.43,21.52,68.91,27.71,104.4,14.3,81.86-26.17,168.77-93.69,215.98V0h530.46c-1.06,19.04-3.38,37.81-9.67,55.69-32.42,92.12-154.34,124.78-194.91,213.6-21.58,47.24-16.04,101.85-10.08,153.43,8.2,70.87,21.76,150.89,81.23,190.29,46.13,30.57,117,35.03,136.1,86.97,15.83,43.05-17.08,87.72-23.26,133.17-11.83,86.99,75.14,165.78,60.39,252.32Z"/>
    <path class="cls-1" d="m1440.24,0v3122.7c-8.02-17.63-15.06-35.87-22.21-53.67-19.56-48.78-44.21-99.82-89.96-125.7-39.55-22.38-98.29-31.74-105.55-76.59-10.33-63.79,103.59-100.03,87.29-162.56-9.34-35.84-58.94-45.95-92.46-30.18-33.51,15.77-55.93,47.58-81.66,74.22-25.72,26.65-61.39,50.28-97.48,41.97-26.17-6.03-46.49-27.76-72.55-34.27-34.57-8.64-70.09,11.63-95.24,36.87-25.15,25.24-44.63,56.21-72.74,78.11-61.51,47.91-147.58,41.77-225.41,37-77.82-4.77-166.68-1.38-218.06,57.27-47.09,53.77-54.58,146.02-121.61,170.84-32.25,11.94-68.78,3.05-102.11,11.55-60.54,15.45-92.07,81.03-111.46,140.43-5.97,18.3-11.98,37.3-19.03,55.73v-610.19c11.74,5.96,24.25,10.32,37.4,12.67,84.98,15.23,161.59-53.73,246.86-67.23,72.84-11.53,144.91,18.14,216.44,36.11,71.53,17.96,157.03,20.69,208.63-32,47.39-48.39,51.83-130.27,105.78-171.22,43.61-33.1,104.55-27.87,158.25-17.22,53.71,10.65,110.62,24.95,161.81,5.55,66.44-25.18,101.89-111.14,72.51-175.83-13.7-30.17-39.26-56.57-40.53-89.68-1.93-50.62,52.79-85.92,64.07-135.31,14.62-64.06-45.82-117.89-72.72-177.84-20.34-45.32-19.92-98.81-1.49-144.67,7.88-19.63,31.31-42.15,31.51-61.31.3-29.28-20.61-50.64-10.15-82.91,16.23-50.1,78.11-65.78,118.26-99.86,35.98-30.54,55.01-79.9,48.85-126.69-6.16-46.8-37.32-89.55-79.98-109.74-31-14.67-66.69-17.84-96.83-34.2-30.15-16.36-53.65-55.21-35.96-84.59,8.87-14.74,25.78-23.02,35.41-37.28,17.93-26.56,3.59-64.79-21.57-84.63-25.15-19.84-57.84-26.55-88.74-35-30.91-8.44-63.26-20.65-81.6-46.92-23.31-33.4-16.6-80.13,2.67-116.01,19.28-35.89,49.14-64.75,73.48-97.41,24.34-32.66,43.84-72.74,37.08-112.9-8.67-51.49-58.8-94.65-49.37-146,6.77-36.84,43.06-63.27,48.56-100.32,6.67-44.89-33.28-81.85-70.02-108.51-36.73-26.65-78.38-59.87-77.17-105.24.68-25.8,15.72-48.8,31.09-69.54,15.36-20.74,32.1-41.85,37.14-67.17,4.55-22.83-3.51-37.26-14.83-50.63h445.4Z"/>
    <path class="cls-1" d="m1440.24,5460.09v339.91H0v-330.12c22.26,10.5,43.27,23.61,62.36,39.16,55.33,45.05,99.05,111.34,168.45,127.85,53.13,12.63,108.41-7.89,156.69-33.4,48.29-25.51,94.86-56.81,148.28-68.18,126.68-26.96,258.17,63.99,383.45,31.12,52.13-13.67,101.52-48.47,154.76-40.13,34.8,5.45,72.48,28.57,101.99,9.33,42.28-27.56,8.36-99.76,36.88-141.4,26.74-39.05,88.53-26.05,127.19,1.25,32.55,22.97,63.12,54.08,100.19,64.61Z"/>
    <path class="cls-1" d="m1440.12,3920.3v845.86c-38.86-19.59-70.21-54.33-80.58-96.77-8.55-35-4.35-71.77-8.26-107.58-3.91-35.81-19.23-74.3-52.08-89.07-38.35-17.25-88.26,3.2-122.65-20.99-41.8-29.41-28.78-101.64-68.66-133.59-35.3-28.27-88.5-6.92-122.55,22.84s-64.25,68.78-108.37,78.73c-57.68,13.02-116.64-29.25-174.76-18.34-77.19,14.49-115.25,113.71-192.1,129.95-49.53,10.47-97.99-17.06-144.07-38.02s-105.13-34.34-143.5-1.31c-44.14,37.99-30.5,107.38-29.1,165.61,1.49,61.72-19.06,128.3-69.91,163.3-35.78,24.63-87.68,25.41-123.41,3.79v-740.56c15.03-2.36,29.4-3.71,42.64-3.99,171.4-3.55,304.05,150.89,469.36,196.32,125.86,34.59,268.6-.75,363.78-90.08,27.77-26.05,52.81-57.06,87.94-71.75,96.37-40.29,219.31,59.16,305.08-.47,41.2-28.64,53.88-82.59,77.3-126.96,23.19-43.94,57.13-63.85,93.9-66.92Z"/>
  </g>
</svg>