<?xml version="1.0" encoding="UTF-8"?>
<svg id="Layer_2" data-name="Layer 2" xmlns="http://www.w3.org/2000/svg" viewBox="0 0 1844 5190.43">
  <defs>
    <style>
      .cls-1 {
        fill: #fff;
        stroke-width: 0px;
      }
    </style>
  </defs>
  <g id="Layer_3" data-name="Layer 3">
    <path class="cls-1" d="m683,.43H.37c.01-.14.01-.29.02-.43h682.44c.06.14.12.28.17.43Z"/>
    <path class="cls-1" d="m636.94,829.84c-33,25.16-70.84,48.26-87.91,86.08-19.54,43.33-8.26,99.33-39.18,135.43-33.07,38.62-105.94,43.52-114.17,93.69-2.21,13.43,1.43,27.07,1.81,40.67,1.55,54.61-47.82,96.72-96.75,121.01-48.93,24.3-104.51,41.68-138.82,84.19-23,28.51-33.37,64.88-43.2,100.17-.45,1.61-.9,3.23-1.35,4.85-2.75,24.5-1.68,49.42,3.53,73.55,8.95,41.47,29.06,79.87,38.12,121.32,20.2,92.32-16,186.2-40.33,277.52-24.33,91.31-33.45,199.3,28.83,270.38,24.42,27.87,57.31,46.71,85.48,70.78,28.17,24.08,52.95,57.22,51.34,94.24-2.38,54.85-60.4,94.37-65.29,149.05-2.09,23.45,6.03,46.55,7.76,70.03,5.4,73.05-55.87,137.41-127.17,156.33-7.36,2.78-14.51,5-19.19,7.13-29.16,13.27-58.17,29.69-80.45,52.77V9.04C.13,6.17.25,3.3.37.43h682.63c14.67,36.1-2.84,81.15-28.2,110.78-25.45,29.76-58.77,51.87-84.84,81.08s-44.82,70.21-32.14,107.25c9.89,28.91,36.14,48.37,58.44,69.25,22.31,20.88,43.1,49.59,36.73,79.47-6.3,29.54-36.82,48.37-46.28,77.05-12.68,38.45,16.19,77.57,45.7,105.28,29.52,27.72,64.18,57.21,66.98,97.6,2.88,41.4-29.45,76.5-62.45,101.65Z"/>
    <path class="cls-1" d="m.37.43c-.12,2.87-.24,5.74-.37,8.61V.43h.37Z"/>
    <path class="cls-1" d="m1844,.43v2785.67c-32.22-26.61-70.04-46.88-97.46-78.39-8.33-9.57-16.15-21.99-21.85-35.55-31.75-25.12-56.25-59.38-67.65-98.29-8.37-28.57-10.93-60.39-29.93-83.3-20.3-24.47-53.85-32.26-81.86-47.3-48.85-26.23-82.94-76.3-134.49-96.72-43.39-17.19-92.08-10.62-138.46-15.81-46.38-5.2-97.97-30.32-105.35-76.41-8.07-50.37,39.19-89.77,73.3-127.7,49.64-55.21,78.36-128.8,79.24-203.04.32-27.1-2.91-54.42,1.23-81.21,4.14-26.78,17.37-54.09,41.58-66.3,40.82-20.59,89.27,9.58,134.83,5.78,62.55-5.21,101.76-72.49,110.13-134.69s-2.71-126.54,12.06-187.54c10.71-44.19,34.91-87.1,28.8-132.16-3.58-26.4-17.22-49.9-28.81-74.08-38.17-31.92-50.8-90.56-89.2-124.48-43.44-38.39-107.72-36.37-165.54-40.47-57.82-4.11-125.35-25.47-141.18-81.23-12.44-43.81,13.42-90.21,7.55-135.37-5.19-39.86-33.8-71.91-58.16-103.88-24.36-31.98-46.53-71.7-36.14-110.53,13.36-49.94,74.44-75.31,88.58-125.04,7.01-24.69,1.12-51.72,8.51-76.29,10.69-35.51,47.03-59.53,55.03-95.74,7.53-34.03-12.59-68.38-37.54-92.73-24.94-24.34-55.4-42.95-77.75-69.69-31.55-37.75-43.99-90.72-32.53-138.57,4.93-20.58,12.85-40.91,23.89-58.94h679.17Z"/>
    <path class="cls-1" d="m1844,2970.3v2220.13H0v-1987.38c21.01,28.47,46.05,54.45,59.23,87.15,28.11,69.74-4.19,152.83,23.85,222.6,19.24,47.86,63.09,80.31,100.12,116.22,43.54,42.22,79.63,92.11,106.1,146.68,14.24,29.36,24.52,67.81,2.54,91.94-12.42,13.63-29.91,17.4-48.75,17.76-1.71.63-3.53,1.17-5.46,1.63-40.7,9.65-72.64,30.68-83.9,74.15-11.35,43.83,1.52,90.15,17.99,132.32,16.47,42.16,36.87,83.81,41.23,128.87,10.85,112.17-79.25,217.12-63.67,328.73,5.14,36.76,21.72,72.22,19.29,109.25-1.96,29.86-16.01,56.95-28.1,84.64-1.78,22.85-.96,45.34,10.24,64.84,19.07,33.19,61.44,44.76,99.69,46.31,38.25,1.56,77.76-3.6,113.98,8.81,60.21,20.63,95.2,83.61,149.92,116.12,67.77,40.27,153.37,27.81,230.5,11.5,112.21-23.73,223.18-52.9,334.1-82.05,52.18-13.72,107.89-27.37,159.14-10.51,46.97,15.46,96.66,55.41,139.24,30.26,3.98-2.36,7.58-5.16,10.91-8.26.61-1.34,1.26-2.66,1.92-3.96,21.46-42.07,63.54-73,110.1-80.91,65.85-11.18,140.68,19.87,196.65-16.58,43.23-28.16,55.93-87.88,45.21-138.36-10.71-50.47-39.83-94.7-65.39-139.52-25.57-44.82-48.65-94.16-45.27-145.65,5.62-85.81,82.91-155.96,82.56-241.96-.27-65.66-45.95-122.48-58.43-186.94-5.94-30.68-4.2-62.37-8.96-93.25-4.76-30.88-17.82-62.89-44.61-78.97-18.23-10.95-41.46-13.7-56.57-28.67-27.47-27.2-9.96-76.21,19.88-100.79,29.84-24.58,68.83-36.23,97.91-61.7,20.85-18.27,36.2-51.02,27.99-78.85-26.05-37.67-68.51-67.11-73.16-112.25-3.8-36.94,20-70.82,45.45-97.87,25.44-27.05,54.76-52.88,66.64-88.06,18.68-55.3-10.48-120.3,15.16-172.74,18.92-38.69,62.46-59.63,98.73-84.68Z"/>
  </g>
</svg>